<?xml version="1.0" standalone="no"?>
<!DOCTYPE svg PUBLIC "-//W3C//DTD SVG 20010904//EN"
 "http://www.w3.org/TR/2001/REC-SVG-20010904/DTD/svg10.dtd">
<svg version="1.0" xmlns="http://www.w3.org/2000/svg"
 width="98.000000pt" height="98.000000pt" viewBox="0 0 98.000000 98.000000"
 preserveAspectRatio="xMidYMid meet">
<metadata>
Created by potrace 1.14, written by Peter Selinger 2001-2017
</metadata>
<g transform="translate(0.000000,98.000000) scale(0.100000,-0.100000)"
fill="#000000" stroke="none">
<path d="M66 908 c-8 -13 -14 -32 -12 -43 2 -11 -3 -28 -12 -37 -19 -22 -46
-20 261 -20 136 0 247 -3 247 -6 0 -3 -10 -16 -22 -29 -21 -23 -22 -30 -22
-289 -1 -224 -3 -266 -16 -274 -17 -11 -18 -11 59 -13 83 -3 81 -12 81 290 l0
266 28 26 c25 24 34 26 135 27 119 2 137 10 137 56 0 16 5 38 10 49 11 19 3
19 -424 19 l-436 0 -14 -22z"/>
<path d="M68 763 c-12 -15 -14 -68 -13 -343 1 -256 -1 -330 -12 -348 -15 -24
-12 -26 69 -25 61 1 64 9 63 192 0 114 4 169 12 180 15 20 15 28 16 -172 2
-124 -1 -171 -10 -179 -7 -6 -13 -13 -13 -17 0 -11 118 -5 133 7 11 10 14 69
13 344 -1 239 2 339 11 355 l12 23 -133 0 c-114 0 -135 -2 -148 -17z m133
-112 c7 -33 2 -90 -8 -100 -16 -15 -15 -17 -17 50 -1 39 2 56 11 56 7 0 14 -3
14 -6z"/>
<path d="M369 763 c-11 -13 -14 -82 -14 -355 0 -271 -3 -340 -13 -347 -23 -14
4 -17 134 -16 144 1 154 6 154 75 l0 47 -97 2 c-54 1 -99 3 -100 5 -1 1 8 13
21 27 24 26 24 27 24 288 0 191 3 266 12 276 11 13 4 15 -48 15 -43 0 -63 -5
-73 -17z"/>
<path d="M670 765 c-10 -12 -13 -94 -13 -355 0 -300 -2 -340 -16 -346 -25 -10
16 -21 67 -18 72 4 72 4 72 206 0 150 2 179 13 169 19 -15 18 -341 0 -362 -10
-13 -4 -15 46 -14 97 2 91 -22 91 369 0 253 3 345 12 354 9 9 -18 12 -124 12
-110 0 -138 -3 -148 -15z m136 -164 c2 -70 -20 -63 -24 8 -2 40 0 52 10 49 8
-3 13 -24 14 -57z"/>
</g>
</svg>
